<svg xmlns="http://www.w3.org/2000/svg" viewBox="0 0 1430 231"><g fill="#fff"><path d="M190.2 167.1c-26.5 9.6-54.5 16.4-83.5 19.9h-.1c-3.3.4-6.6.8-9.9 1.1h-.1c-7.7.7-15.6 1.3-23.4 1.6-9.3.3-18.5.3-27.6 0-10.4-.4-19.7-4-27.1-9.8 25.8-4.2 51.3-9.3 76.4-16.5 20.5-5.9 40.6-13.1 59.8-22 11.4-5.3 22.5-11.3 33-17.9 11.7-7.2 22.7-15.4 33-24.5.7-.6 1.4-1.3 2.2-1.9 9.7 27.1-2.9 59.2-32.7 70m14.2-97c-1.9 1.2-3.7 2.5-5.5 3.8-7.3 5.2-14.8 10.2-22.4 15l-1.5.9c-8.1 5.1-16.4 10-24.8 14.7-4.5 2.4-9 4.9-13.5 7.2-8.6 4.4-17.3 8.6-26.1 12.5-6.2 2.8-12.5 5.5-18.9 8-21 8.4-42.5 15.6-64.3 21.3l-23.9 5.9c-3.6-9.3-4.4-19.8-1.4-30.4 10.4-36 24.5-60.6 44.5-92.4 4.7-7.5 10.7-14.2 17.6-19.7C69 13 74.4 9.8 80 7.2c27.1-12.2 60.3-8.6 83.9 13.4 15.8 15 26 32.7 40.5 49.5M314 167.9c-10-4-18-9.5-24.2-16.7-1.8-2.3-2.6-4.4-2.6-6.6 0-3.2 1.4-6.1 4.2-8.5 2.1-1.7 4.3-2.5 6.6-2.5 2.9 0 5.5 1.4 7.6 4 4.2 5.3 9.8 9.4 16.6 12.1 7 2.8 14.6 4.2 23 4.2 12.2 0 21.4-2.3 27.5-6.8 6.2-4.5 9.3-10.5 9.4-17.8 0-6.8-3-12.4-9.2-17-6.2-4.5-15.9-7.9-29.1-10.2-17.1-3-30-8.2-38.5-15.8-8.5-7.4-12.7-16.5-12.7-27 0-13.8 4.9-24.5 14.8-32s22.2-11.4 37.1-11.4c11.6 0 21.6 2.2 30.2 6.4 8.6 4.2 15.5 10.2 20.8 17.7 1.4 2.4 2.1 4.6 2.1 6.6 0 3.2-1.4 5.8-4.2 7.6-1.3 1-2.8 1.4-5 1.4-3.7 0-6.8-1.4-9.2-4.2-8.6-10.6-20.3-15.9-35.2-15.9-9.6 0-17.3 2.2-23.1 6.4s-8.6 9.6-8.6 16.1c0 6.8 2.7 12.2 8.1 16.3 5.4 4.1 15.1 7.3 28.9 9.8 18.7 3.4 32.1 8.9 40.2 16.6 8 7.6 12 17.1 12 28.5 0 8.7-2.4 16.5-7.2 23.2-4.8 6.8-11.6 12-20.1 15.9-8.6 3.8-18.3 5.7-29.1 5.7-10.8-.3-21.1-2.2-31.1-6.1zM491 157c1.6 1.8 2.4 4.1 2.4 6.9 0 2.4-.7 4.6-2.2 6.4-2.1 2.4-4.8 3.6-8.1 3.6H478c-8.6 0-16.5-2.2-23.3-6.5-6.9-4.3-12.2-10.2-16.1-17.6s-5.8-15.8-5.8-25.1v-61H423c-2.6 0-4.7-.8-6.3-2.4-1.6-1.6-2.4-3.6-2.4-6 0-2.5.8-4.6 2.4-6.3 1.6-1.6 3.6-2.4 6.3-2.4h9.9V32.7c0-2.9.9-5.3 2.5-7.1 1.8-1.9 3.9-2.8 6.8-2.8 2.7 0 5.1 1 6.9 2.8 1.8 1.9 2.7 4.2 2.7 7.1v13.8h27.7c2.6 0 4.7.8 6.3 2.4 1.6 1.7 2.4 3.7 2.4 6.3 0 2.3-.8 4.4-2.4 6-1.6 1.7-3.6 2.4-6.3 2.4h-27.7v60.9c0 8.7 2.4 15.8 7.3 21.2 4.9 5.5 11.2 8.3 18.9 8.3h6.7c2.6.1 4.8 1 6.3 3zm322.7 10.9c-10-4-18-9.5-24.2-16.7-1.8-2.3-2.6-4.4-2.6-6.6 0-3.2 1.4-6.1 4.2-8.5 2.1-1.7 4.3-2.5 6.6-2.5 2.9 0 5.5 1.4 7.6 4 4.2 5.3 9.8 9.4 16.6 12.1 7 2.8 14.6 4.2 23 4.2 12.2 0 21.4-2.3 27.5-6.8 6.2-4.5 9.3-10.5 9.4-17.8 0-6.8-3-12.4-9.2-17-6.2-4.5-15.9-7.9-29.1-10.2-17.1-3-30-8.2-38.5-15.8-8.5-7.4-12.7-16.5-12.7-27 0-13.8 4.9-24.5 14.8-32s22.2-11.4 37.1-11.4c11.6 0 21.6 2.2 30.2 6.4 8.6 4.2 15.5 10.2 20.8 17.7 1.4 2.4 2.1 4.6 2.1 6.6 0 3.2-1.4 5.8-4.2 7.6-1.3 1-2.8 1.4-5 1.4-3.7 0-6.8-1.4-9.2-4.2-8.6-10.6-20.3-15.9-35.2-15.9-9.6 0-17.3 2.2-23.1 6.4-5.8 4.2-8.6 9.6-8.6 16.1 0 6.8 2.7 12.2 8.1 16.3 5.4 4.1 15.1 7.3 28.9 9.8 18.7 3.4 32.1 8.9 40.2 16.6 8 7.6 12 17.1 12 28.5 0 8.7-2.4 16.5-7.2 23.2-4.8 6.8-11.6 12-20.1 15.9-8.6 3.8-18.3 5.7-29.1 5.7-10.7-.3-21.2-2.3-31.1-6.1zM991 157c1.6 1.8 2.3 4.1 2.4 6.9 0 2.4-.7 4.6-2.2 6.4-2.1 2.4-4.8 3.6-8.1 3.6H978c-8.6 0-16.5-2.2-23.3-6.5-6.9-4.3-12.2-10.2-16.1-17.6s-5.8-15.8-5.8-25.1v-61h-9.9c-2.6 0-4.7-.8-6.3-2.4-1.6-1.6-2.3-3.6-2.3-6 0-2.5.8-4.6 2.3-6.3 1.6-1.6 3.6-2.4 6.3-2.4h9.9V32.7c0-2.9.9-5.3 2.5-7.1 1.8-1.9 3.9-2.8 6.8-2.8 2.7 0 5.1 1 6.9 2.8 1.8 1.9 2.7 4.2 2.7 7.1v13.8h27.7c2.6 0 4.7.8 6.3 2.4 1.6 1.7 2.3 3.7 2.3 6.3 0 2.3-.8 4.4-2.3 6-1.6 1.7-3.6 2.4-6.3 2.4h-27.7v60.9c0 8.7 2.4 15.8 7.3 21.2 4.9 5.5 11.2 8.3 18.9 8.3h6.7c2.6.1 4.7 1 6.4 3zM743 43.2c-10.2-6.1-21.6-9.1-34.1-9.1s-23.9 3-34.1 9.1c-10.2 6.1-18.2 14.6-24.1 25.2-5.9 10.7-8.8 22.6-8.8 35.6v58.7c0 1 .1 1.8.2 2.4v55.8c0 2.9.9 5.4 2.6 7.2s4 2.8 6.9 2.8c2.8 0 5.2-1 7-2.8 1.9-1.9 2.7-4.3 2.7-7.2v-72c5.5 7.5 12.4 13.6 20.8 18 8.6 4.6 18.3 6.9 28.7 6.9 12.1 0 23.3-3 33.1-9.2 9.8-6.1 17.7-14.5 23.4-25.1s8.5-22.5 8.5-35.5c0-12.9-2.9-25-8.8-35.6-5.7-10.6-13.8-19.1-24-25.2zm14.2 60.8c0 9.7-2.2 18.6-6.3 26.3-4.2 7.8-10 14-17.3 18.4s-15.6 6.7-24.6 6.7c-12.4 0-23.2-4.2-31.9-12.3-8.7-8.2-14-18.9-15.6-31.6 0-.5-.1-1-.3-1.4-.2-1.3-.2-3.3-.2-6.2 0-9.7 2.2-18.6 6.3-26.3 4.2-7.8 10-14 17.2-18.6 7.2-4.5 15.5-6.8 24.5-6.8s17.2 2.3 24.6 6.8 13.1 10.8 17.3 18.6c4.2 7.9 6.3 16.7 6.3 26.4zM1102 43.1c-10.1-6-21.5-9-34.2-9s-24.2 3-34.3 9c-10.2 6-18.2 14.4-24 25.1-5.8 10.7-8.7 22.7-8.7 35.8s2.9 25.2 8.7 35.7c5.8 10.6 13.8 19 24 25s21.7 9 34.3 9c12.6 0 24.2-3 34.3-9 10.2-6 18.2-14.4 24-25 5.8-10.6 8.7-22.6 8.7-35.7s-2.9-25.2-8.8-35.8-14-19.1-24-25.1zm-9.5 105.8c-7.2 4.4-15.6 6.7-24.7 6.7-9 0-17.2-2.3-24.6-6.7-7.3-4.4-13.1-10.7-17.3-18.4-4.2-7.8-6.3-16.6-6.3-26.3 0-9.9 2.2-18.8 6.3-26.6 4.2-7.8 10-14 17.3-18.4s15.6-6.7 24.6-6.7c9.1 0 17.4 2.3 24.7 6.7s13 10.7 17.1 18.4c4.1 7.8 6.2 16.7 6.2 26.6 0 9.7-2.1 18.6-6.2 26.3-4.1 7.7-9.9 14-17.1 18.4zM1248.2 42.6c-9-5-19.4-7.5-30.8-7.5-8.8 0-17 1.8-24.6 5.3-7.2 3.3-13.5 8-18.6 13.8v-7.4c0-2.9-.9-5.4-2.6-7.2-1.8-1.9-4-2.8-6.9-2.8s-5.2 1-7 2.8c-1.9 1.9-2.7 4.3-2.7 7.2V164c0 2.9.9 5.3 2.7 7.1 1.9 1.8 4.1 2.7 7 2.7s5.1-.9 6.9-2.7c1.8-1.9 2.6-4.2 2.6-7.1V90.1c0-6.7 1.9-12.9 5.5-18.4s8.6-9.9 14.8-12.9c6.3-3.1 13.3-4.7 21.1-4.7 12.6 0 22.9 3.8 30.8 11.5 7.8 7.6 11.8 18.9 11.8 33.5v64.8c0 2.7.9 5.1 2.7 7.1 2.1 2.2 4.9 3.1 8.3 2.7 1.4-.1 2.7-.6 3.8-1.5 2.8-2.1 4.3-4.9 4.3-8.3V99c0-13.3-2.5-24.9-7.7-34.5s-12.4-16.9-21.4-21.9zM615.7 66.7c-5-10.2-12.2-18.2-21.3-24-9.1-5.8-19.8-8.6-31.5-8.6-12.1 0-23.1 3-32.6 8.9s-17 14.3-22.4 24.9c-5.4 10.6-8 22.7-8 36.2 0 13.3 2.8 25.5 8.5 35.9 5.7 10.6 13.6 18.9 23.7 24.9 10.1 5.9 21.6 8.9 34.5 8.9 7.5 0 15.5-1.6 23.6-4.6 8.1-3 15-7 20.3-11.7 1.9-1.8 2.7-3.7 2.7-6.1 0-2.5-1.1-5-3.2-7.1-1.9-1.4-3.6-2.1-5.5-2.1-2.3 0-4.6.9-6.8 2.5-3.4 3.1-8.1 5.8-13.9 7.7-5.8 2.1-11.6 3.1-17.2 3.1-13.2 0-24.5-4.2-33.3-12.6-8.7-8.3-13.8-19.2-15.2-32.5 0 0-4.1-28.1 14.9-47 7.8-7.7 17.9-11.7 30-11.7 11.8 0 21.6 3.9 29.2 11.7 7.4 7.6 11.9 17.8 13.2 30.3h-65.6c-2.5 0-4.6.8-6.1 2.3-1.5 1.6-2.3 3.5-2.3 5.9 0 2.5.8 4.5 2.3 6.1 1.6 1.6 3.5 2.3 6.1 2.3h74.7c2.6 0 4.8-.9 6.5-2.4 1.7-1.7 2.5-3.9 2.5-6.7-.2-12.7-2.7-24.3-7.8-34.5zm797.3 0c-5-10.2-12.2-18.2-21.3-24-9.1-5.8-19.8-8.6-31.5-8.6-12.1 0-23.1 3-32.6 8.9s-17 14.3-22.4 24.9c-5.4 10.6-8 22.7-8 36.2 0 13.3 2.8 25.5 8.5 35.9 5.7 10.6 13.6 18.9 23.7 24.9 10.1 5.9 21.6 8.9 34.5 8.9 7.5 0 15.5-1.6 23.6-4.6 8.1-3 15-7 20.3-11.7 1.9-1.8 2.7-3.7 2.7-6.1 0-2.5-1.1-5-3.2-7.1-1.9-1.4-3.6-2.1-5.5-2.1-2.3 0-4.6.9-6.8 2.5-3.4 3.1-8.1 5.8-13.9 7.7-5.8 2.1-11.6 3.1-17.2 3.1-13.2 0-24.5-4.2-33.3-12.6-8.7-8.3-13.8-19.2-15.2-32.5 0 0-4.1-28.1 14.9-47 7.8-7.7 17.9-11.7 30-11.7 11.8 0 21.6 3.9 29.2 11.7 7.4 7.6 11.9 17.8 13.2 30.3h-65.6c-2.5 0-4.6.8-6.1 2.3-1.5 1.6-2.3 3.5-2.3 5.9 0 2.5.8 4.5 2.3 6.1 1.6 1.6 3.5 2.3 6.1 2.3h74.7c2.6 0 4.8-.9 6.5-2.4 1.7-1.7 2.5-3.9 2.5-6.7-.3-12.7-2.8-24.3-7.8-34.5z"/></g></svg>
