<svg xmlns="http://www.w3.org/2000/svg" xmlns:xlink="http://www.w3.org/1999/xlink" viewBox="0 0 91 15"><defs><path id="a" d="M0 0h90.558v14.667H0z"/></defs><g fill="none" fill-rule="evenodd"><mask id="b" fill="#fff"><use xlink:href="#a"/></mask><path fill="#FFF" d="M3.78 5.07c-.038-2.489-.112-2.788-.636-2.788-.6 0-.655.374-.655 5.05 0 4.415-.075 5.051.655 5.051.524 0 .655-.299.655-3.217l2.432.542c-.111 3.929-1.16 4.995-3.106 4.958C.6 14.628 0 12.57 0 7.332 0 1.01 1.123 0 3.144 0c2.32 0 2.9 1.44 3.05 4.564L3.78 5.07zm5.936 9.596c-2.17 0-3.125-1.422-3.125-7.334C6.591 1.028 7.64 0 9.735 0c2.077 0 3.144.935 3.144 7.332 0 6.305-1.085 7.334-3.163 7.334zm.019-12.384c-.561 0-.655.3-.655 5.05 0 4.659.056 5.051.655 5.051.636 0 .655-.374.655-5.05 0-4.864-.13-5.05-.655-5.05zm9.812 12.234v-8.38l-.262 2.15-.786 6.23H16.89l-.823-6.304-.281-2.133V14.516h-2.32V.112h2.582l.973 4.602.692 4.602.58-4.64.805-4.564h2.751v14.404h-2.302zm6.111-5.575h-.561v5.575h-2.489V.112h2.882c1.722 0 3.35.73 3.35 4.415 0 3.778-1.516 4.414-3.182 4.414zm-.261-6.547h-.3V6.66h.262c.674 0 .992-.449.992-2.002 0-1.552-.225-2.263-.954-2.263zm7.013 12.272c-2.226 0-3.143-1.347-3.143-4.864V.112h2.489v9.82c0 1.871 0 2.451.654 2.451.637 0 .656-.599.656-2.45V.112h2.489v9.672c0 3.235-.861 4.882-3.145 4.882zm7.951-12.253v12.103h-2.489V2.413H35.74V.112h6.55v2.301H40.36zm2.11 12.103V.112h5.427l-.45 2.264h-2.526v3.217h2.17v2.3h-2.189v4.415h2.658l.449 2.208H42.47zm9.551 0l-.935-6.79h-.412v6.79H48.26V.112h2.77c3.2 0 3.48 2.301 3.48 3.816 0 1.534-.13 2.731-1.178 3.349l1.328 7.239h-2.639zm-1.048-12.14h-.3v3.067h.263c.674 0 1.085-.43 1.085-1.496 0-1.197-.411-1.571-1.048-1.571zm12.186 12.14h-2.32l-.711-6.004c-.113-.936-.168-1.404-.206-2.021-.037.617-.094 1.066-.224 2.039l-.768 5.986h-2.245L54.458.112h2.264l1.105 6.884c.057.318.093.73.112 1.796.056-.917.132-1.347.188-1.796l.842-6.884h1.852l.898 6.922c.038.317.131.86.169 1.758.056-.917.112-1.422.15-1.777l.804-6.903h2.339L63.16 14.516zm4.993.15c-2.171 0-3.126-1.422-3.126-7.334C65.027 1.028 66.075 0 68.171 0c2.077 0 3.144.935 3.144 7.332 0 6.305-1.085 7.334-3.162 7.334zm.018-12.384c-.561 0-.655.3-.655 5.05 0 4.659.056 5.051.655 5.051.636 0 .654-.374.654-5.05 0-4.864-.13-5.05-.654-5.05zm7.505 12.234l-.936-6.79h-.411v6.79h-2.415V.112h2.77c3.2 0 3.48 2.301 3.48 3.816 0 1.534-.13 2.731-1.179 3.349l1.33 7.239h-2.639zm-1.048-12.14h-.3v3.067h.263c.673 0 1.085-.43 1.085-1.496 0-1.197-.412-1.571-1.048-1.571zm4.058 12.14V.112h2.49v12.103h2.245l.374 2.3h-5.11zm7.849 0h-2.377V.112h2.227c3.443 0 4.173 1.179 4.173 7.333 0 6.173-.86 7.07-4.023 7.07zm.393-12.271h-.3v10.138h.262c.674 0 .992-.13.992-4.938 0-4.92-.224-5.2-.954-5.2z" mask="url(#b)"/></g></svg>