<svg id="Layer_1" data-name="Layer 1" xmlns="http://www.w3.org/2000/svg" viewBox="0 0 187.1 65.3"><defs><style>.cls-1,.cls-2{fill:#fff;}.cls-1{fill-rule:evenodd;}</style></defs><title>2Artboard 1</title><path class="cls-1" d="M179.6,4.7H179v21h.5c1.4,0,2-.3,2-10.2.1-10.2-.4-10.8-1.9-10.8Zm-.8,25.4h-4.9V.3h4.6c7.1,0,8.6,2.4,8.6,15.2s-1.8,14.6-8.3,14.6Zm-16.2,0V.3h5.1v25h4.6l.8,4.8ZM154.2,5h-.6v6.3h.5c1.4,0,2.2-.9,2.2-3.1.1-2.4-.8-3.2-2.1-3.2Zm2.2,25.1-1.9-14h-.9v14h-5V.3h5.7c6.6,0,7.2,4.8,7.2,7.9s-.3,5.6-2.4,6.9l2.7,15ZM140.9,4.8c-1.2,0-1.4.6-1.4,10.4,0,9.6.1,10.4,1.4,10.4s1.4-.8,1.4-10.4c-.1-10-.3-10.4-1.4-10.4Zm-.1,25.6c-4.5,0-6.5-2.9-6.5-15.2,0-13,2.2-15.2,6.5-15.2s6.5,1.9,6.5,15.2c.1,13.1-2.2,15.2-6.5,15.2Zm-10.3-.3h-4.8l-1.5-12.4c-.2-1.9-.3-2.9-.4-4.2-.1,1.3-.2,2.2-.5,4.2l-1.6,12.4h-4.6L112.5.3h4.7l2.3,14.2a23,23,0,0,1,.2,3.7c.1-1.9.3-2.8.4-3.7L121.8.3h3.8l1.9,14.3a21.65,21.65,0,0,1,.3,3.6c.1-1.9.2-2.9.3-3.7L129.8.2h4.8l-4.1,29.9ZM105.3,5h-.6v6.3h.5c1.4,0,2.2-.9,2.2-3.1.1-2.4-.7-3.2-2.1-3.2Zm2.2,25.1-1.9-14h-.9v14h-5V.3h5.7c6.6,0,7.2,4.8,7.2,7.9s-.3,5.6-2.4,6.9l2.7,15Zm-19.7,0V.3H99L98.1,5H92.9v6.6h4.5v4.8H92.9v9.1h5.5l.9,4.6Zm-4.4-25v25H78.3V5.1H73.9V.3H87.4V5.1ZM67,30.4c-4.6,0-6.5-2.8-6.5-10.1V.3h5.1V20.6c0,3.9,0,5.1,1.4,5.1s1.4-1.2,1.4-5.1V.3h5.1v20c0,6.7-1.8,10.1-6.5,10.1ZM52.5,5h-.6v8.8h.5c1.4,0,2-.9,2-4.1S54,5,52.5,5ZM53,18.6H51.8V30.1H46.7V.3h6c3.6,0,6.9,1.5,6.9,9.1,0,7.9-3.1,9.2-6.6,9.2ZM40.4,30.1V12.8l-.5,4.4L38.3,30.1H35l-1.7-13-.6-4.4V30.1H27.9V.3h5.3l2,9.5,1.4,9.5,1.2-9.6L39.5.3h5.7V30.1ZM20.1,4.8c-1.2,0-1.4.6-1.4,10.4,0,9.6.1,10.4,1.4,10.4s1.4-.8,1.4-10.4c0-10-.3-10.4-1.4-10.4Zm0,25.6c-4.5,0-6.5-2.9-6.5-15.2C13.6,2.2,15.8,0,20.1,0s6.5,1.9,6.5,15.2c0,13.1-2.2,15.2-6.5,15.2ZM7.8,10.6c-.1-5.1-.2-5.8-1.3-5.8s-1.4.8-1.4,10.4c0,9.1-.2,10.4,1.4,10.4,1.1,0,1.4-.6,1.4-6.7l5,1.1c-.2,8.3-2.4,10.5-6.4,10.4C1.3,30.3,0,26.1,0,15.2,0,2.1,2.3,0,6.5,0c4.8,0,6,3,6.3,9.4l-5,1.2Z"/><path class="cls-2" d="M103.5,50.5a6.2,6.2,0,1,1-6.2-6.2,6.23,6.23,0,0,1,6.2,6.2"/><path class="cls-2" d="M97.4,62.1a11.5,11.5,0,1,1,11.5-11.5A11.57,11.57,0,0,1,97.4,62.1Zm0-21.1a9.6,9.6,0,1,0,9.6,9.6A9.6,9.6,0,0,0,97.4,41Z"/><path class="cls-2" d="M57.7,37.7h-2V35h2Zm-2,4.3h2V58.3h-2Z"/><path class="cls-2" d="M69,43.8H65.3V54.4a3.83,3.83,0,0,0,.5,1.9,1.88,1.88,0,0,0,1.7.8,4.06,4.06,0,0,0,1.9-.4l.1,1.7a6.21,6.21,0,0,1-1,.3,6.05,6.05,0,0,1-1.5.2,4.14,4.14,0,0,1-2.1-.4,2.54,2.54,0,0,1-1.1-1.2,4.71,4.71,0,0,1-.4-1.7,13.42,13.42,0,0,1-.1-2.1V44H57.2l-1.5-1.7h7.6V38.4l2-.7v4.6H69Z"/><rect class="cls-2" x="70.6" y="48.6" width="8" height="2.2"/><path class="cls-2" d="M78.3,63.3a5,5,0,0,0,1.2.2c1,0,1.6-.3,1.9-1a6.87,6.87,0,0,0,.3-2.2V42h2V60.6a6.71,6.71,0,0,1-.7,3.3,5.24,5.24,0,0,1-1.1,1,3.58,3.58,0,0,1-1.9.4,6.82,6.82,0,0,1-1.8-.2V63.3Zm5.4-25.6h-2V35h2Z"/><path class="cls-2" d="M111.4,34.3h2V44.7h.1c.1-.2.3-.5.5-.9a4.71,4.71,0,0,1,1-1,3.77,3.77,0,0,1,1.5-.9,6.54,6.54,0,0,1,2.1-.4,5.83,5.83,0,0,1,5.2,2.4,11.25,11.25,0,0,1,1.5,6.1,10.47,10.47,0,0,1-1.7,6.1,6.07,6.07,0,0,1-5.1,2.5,5.44,5.44,0,0,1-5.1-3h-.1v2.6h-2V34.3Zm11.5,13.5a5.84,5.84,0,0,0-.8-2.2,3.32,3.32,0,0,0-1.5-1.6,4.27,4.27,0,0,0-2.4-.6,4.14,4.14,0,0,0-2.3.6,5,5,0,0,0-1.5,1.7,10,10,0,0,0-1.1,4.5,8.83,8.83,0,0,0,1.1,4.5,4.63,4.63,0,0,0,1.5,1.6,3.84,3.84,0,0,0,2.2.7,3.61,3.61,0,0,0,2.4-.7,4.63,4.63,0,0,0,1.5-1.6,5.84,5.84,0,0,0,.8-2.2,19.53,19.53,0,0,0,.2-2.3,6.47,6.47,0,0,0-.1-2.4"/><path class="cls-2" d="M127.7,34.3h2V44.7h.1c.1-.2.3-.5.5-.9a4.71,4.71,0,0,1,1-1,3.77,3.77,0,0,1,1.5-.9,6.54,6.54,0,0,1,2.1-.4,5.83,5.83,0,0,1,5.2,2.4,11.25,11.25,0,0,1,1.5,6.1,10.47,10.47,0,0,1-1.7,6.1,6.07,6.07,0,0,1-5.1,2.5,5.44,5.44,0,0,1-5.1-3h0v2.6h-2Zm11.5,13.5a5.84,5.84,0,0,0-.8-2.2,3.32,3.32,0,0,0-1.5-1.6,4.27,4.27,0,0,0-2.4-.6,4.14,4.14,0,0,0-2.3.6,5,5,0,0,0-1.5,1.7,10,10,0,0,0-1.1,4.5,8.83,8.83,0,0,0,1.1,4.5,4.63,4.63,0,0,0,1.5,1.6,3.84,3.84,0,0,0,2.2.7,3.61,3.61,0,0,0,2.4-.7,4.63,4.63,0,0,0,1.5-1.6,5.84,5.84,0,0,0,.8-2.2,19.53,19.53,0,0,0,.2-2.3,9.66,9.66,0,0,0-.1-2.4"/><path class="cls-2" d="M154,55.7h0a4.7,4.7,0,0,1-2.2,2.2,6.74,6.74,0,0,1-3,.8,7.78,7.78,0,0,1-2.8-.5,4.34,4.34,0,0,1-1.7-1.2,5.3,5.3,0,0,1-1-2.8,4.55,4.55,0,0,1,1-3.2,4.89,4.89,0,0,1,2.5-1.7,11.38,11.38,0,0,1,3.3-.7c1.2-.1,2.3-.1,3.3-.1h.4v-.8c.1-2.8-1.2-4.2-3.7-4.2a9.12,9.12,0,0,0-4.8,1.3v-2a11.25,11.25,0,0,1,4.8-1.1c3.9,0,5.8,2,5.7,6.1V55a18.3,18.3,0,0,0,.2,3.4h-2Zm-.2-5.6h-.6a21.75,21.75,0,0,0-2.6.1,15.77,15.77,0,0,0-2.5.5,5.67,5.67,0,0,0-1.8,1.2,2.82,2.82,0,0,0-.7,2.1,2.35,2.35,0,0,0,1,2.2,3.61,3.61,0,0,0,2.4.7,4.65,4.65,0,0,0,2.8-.7,3.56,3.56,0,0,0,1.4-1.6,4.92,4.92,0,0,0,.5-2c0-.7.1-1.2.1-1.6v-.9Z"/><path class="cls-2" d="M158.7,45.9c0-1.3,0-2.5-.1-3.8h2V45h.1a7.46,7.46,0,0,1,.7-1.2,10,10,0,0,1,1-1.1,5.3,5.3,0,0,1,1.5-.8,6.65,6.65,0,0,1,2.1-.3,5,5,0,0,1,4.3,1.8,7.72,7.72,0,0,1,1.2,4.5V58.3h-2V48.4a6.53,6.53,0,0,0-.9-3.7,3.31,3.31,0,0,0-3-1.3,4.12,4.12,0,0,0-3.8,1.9,4.55,4.55,0,0,0-.8,1.9,7.61,7.61,0,0,0-.3,2.1v9h-2Z"/><polygon class="cls-2" points="174.3 34.3 176.3 34.3 176.3 48.7 183.6 42 186.2 42 178.2 49.3 187.1 58.4 184.3 58.4 176.3 50 176.3 58.4 174.3 58.4 174.3 34.3"/><path class="cls-1" d="M179.6,4.7H179v21h.5c1.4,0,2-.3,2-10.2.1-10.2-.4-10.8-1.9-10.8Zm-.8,25.4h-4.9V.3h4.6c7.1,0,8.6,2.4,8.6,15.2s-1.8,14.6-8.3,14.6Zm-16.2,0V.3h5.1v25h4.6l.8,4.8ZM154.2,5h-.6v6.3h.5c1.4,0,2.2-.9,2.2-3.1.1-2.4-.8-3.2-2.1-3.2Zm2.2,25.1-1.9-14h-.9v14h-5V.3h5.7c6.6,0,7.2,4.8,7.2,7.9s-.3,5.6-2.4,6.9l2.7,15ZM140.9,4.8c-1.2,0-1.4.6-1.4,10.4,0,9.6.1,10.4,1.4,10.4s1.4-.8,1.4-10.4c-.1-10-.3-10.4-1.4-10.4Zm-.1,25.6c-4.5,0-6.5-2.9-6.5-15.2,0-13,2.2-15.2,6.5-15.2s6.5,1.9,6.5,15.2c.1,13.1-2.2,15.2-6.5,15.2Zm-10.3-.3h-4.8l-1.5-12.4c-.2-1.9-.3-2.9-.4-4.2-.1,1.3-.2,2.2-.5,4.2l-1.6,12.4h-4.6L112.5.3h4.7l2.3,14.2a23,23,0,0,1,.2,3.7c.1-1.9.3-2.8.4-3.7L121.8.3h3.8l1.9,14.3a21.65,21.65,0,0,1,.3,3.6c.1-1.9.2-2.9.3-3.7L129.8.2h4.8l-4.1,29.9ZM105.3,5h-.6v6.3h.5c1.4,0,2.2-.9,2.2-3.1.1-2.4-.7-3.2-2.1-3.2Zm2.2,25.1-1.9-14h-.9v14h-5V.3h5.7c6.6,0,7.2,4.8,7.2,7.9s-.3,5.6-2.4,6.9l2.7,15Zm-19.7,0V.3H99L98.1,5H92.9v6.6h4.5v4.8H92.9v9.1h5.5l.9,4.6Zm-4.4-25v25H78.3V5.1H73.9V.3H87.4V5.1ZM67,30.4c-4.6,0-6.5-2.8-6.5-10.1V.3h5.1V20.6c0,3.9,0,5.1,1.4,5.1s1.4-1.2,1.4-5.1V.3h5.1v20c0,6.7-1.8,10.1-6.5,10.1ZM52.5,5h-.6v8.8h.5c1.4,0,2-.9,2-4.1S54,5,52.5,5ZM53,18.6H51.8V30.1H46.7V.3h6c3.6,0,6.9,1.5,6.9,9.1,0,7.9-3.1,9.2-6.6,9.2ZM40.4,30.1V12.8l-.5,4.4L38.3,30.1H35l-1.7-13-.6-4.4V30.1H27.9V.3h5.3l2,9.5,1.4,9.5,1.2-9.6L39.5.3h5.7V30.1ZM20.1,4.8c-1.2,0-1.4.6-1.4,10.4,0,9.6.1,10.4,1.4,10.4s1.4-.8,1.4-10.4c0-10-.3-10.4-1.4-10.4Zm0,25.6c-4.5,0-6.5-2.9-6.5-15.2C13.6,2.2,15.8,0,20.1,0s6.5,1.9,6.5,15.2c0,13.1-2.2,15.2-6.5,15.2ZM7.8,10.6c-.1-5.1-.2-5.8-1.3-5.8s-1.4.8-1.4,10.4c0,9.1-.2,10.4,1.4,10.4,1.1,0,1.4-.6,1.4-6.7l5,1.1c-.2,8.3-2.4,10.5-6.4,10.4C1.3,30.3,0,26.1,0,15.2,0,2.1,2.3,0,6.5,0c4.8,0,6,3,6.3,9.4l-5,1.2Z"/><path class="cls-2" d="M103.5,50.5a6.2,6.2,0,1,1-6.2-6.2,6.23,6.23,0,0,1,6.2,6.2"/><path class="cls-2" d="M97.4,62.1a11.5,11.5,0,1,1,11.5-11.5A11.57,11.57,0,0,1,97.4,62.1Zm0-21.1a9.6,9.6,0,1,0,9.6,9.6A9.6,9.6,0,0,0,97.4,41Z"/><path class="cls-2" d="M57.7,37.7h-2V35h2Zm-2,4.3h2V58.3h-2Z"/><path class="cls-2" d="M69,43.8H65.3V54.4a3.83,3.83,0,0,0,.5,1.9,1.88,1.88,0,0,0,1.7.8,4.06,4.06,0,0,0,1.9-.4l.1,1.7a6.21,6.21,0,0,1-1,.3,6.05,6.05,0,0,1-1.5.2,4.14,4.14,0,0,1-2.1-.4,2.54,2.54,0,0,1-1.1-1.2,4.71,4.71,0,0,1-.4-1.7,13.42,13.42,0,0,1-.1-2.1V44H57.2l-1.5-1.7h7.6V38.4l2-.7v4.6H69Z"/><rect class="cls-2" x="70.6" y="48.6" width="8" height="2.2"/><path class="cls-2" d="M78.3,63.3a5,5,0,0,0,1.2.2c1,0,1.6-.3,1.9-1a6.87,6.87,0,0,0,.3-2.2V42h2V60.6a6.71,6.71,0,0,1-.7,3.3,5.24,5.24,0,0,1-1.1,1,3.58,3.58,0,0,1-1.9.4,6.82,6.82,0,0,1-1.8-.2V63.3Zm5.4-25.6h-2V35h2Z"/><path class="cls-2" d="M111.4,34.3h2V44.7h.1c.1-.2.3-.5.5-.9a4.71,4.71,0,0,1,1-1,3.77,3.77,0,0,1,1.5-.9,6.54,6.54,0,0,1,2.1-.4,5.83,5.83,0,0,1,5.2,2.4,11.25,11.25,0,0,1,1.5,6.1,10.47,10.47,0,0,1-1.7,6.1,6.07,6.07,0,0,1-5.1,2.5,5.44,5.44,0,0,1-5.1-3h-.1v2.6h-2V34.3Zm11.5,13.5a5.84,5.84,0,0,0-.8-2.2,3.32,3.32,0,0,0-1.5-1.6,4.27,4.27,0,0,0-2.4-.6,4.14,4.14,0,0,0-2.3.6,5,5,0,0,0-1.5,1.7,10,10,0,0,0-1.1,4.5,8.83,8.83,0,0,0,1.1,4.5,4.63,4.63,0,0,0,1.5,1.6,3.84,3.84,0,0,0,2.2.7,3.61,3.61,0,0,0,2.4-.7,4.63,4.63,0,0,0,1.5-1.6,5.84,5.84,0,0,0,.8-2.2,19.53,19.53,0,0,0,.2-2.3,6.47,6.47,0,0,0-.1-2.4"/><path class="cls-2" d="M127.7,34.3h2V44.7h.1c.1-.2.3-.5.5-.9a4.71,4.71,0,0,1,1-1,3.77,3.77,0,0,1,1.5-.9,6.54,6.54,0,0,1,2.1-.4,5.83,5.83,0,0,1,5.2,2.4,11.25,11.25,0,0,1,1.5,6.1,10.47,10.47,0,0,1-1.7,6.1,6.07,6.07,0,0,1-5.1,2.5,5.44,5.44,0,0,1-5.1-3h0v2.6h-2Zm11.5,13.5a5.84,5.84,0,0,0-.8-2.2,3.32,3.32,0,0,0-1.5-1.6,4.27,4.27,0,0,0-2.4-.6,4.14,4.14,0,0,0-2.3.6,5,5,0,0,0-1.5,1.7,10,10,0,0,0-1.1,4.5,8.83,8.83,0,0,0,1.1,4.5,4.63,4.63,0,0,0,1.5,1.6,3.84,3.84,0,0,0,2.2.7,3.61,3.61,0,0,0,2.4-.7,4.63,4.63,0,0,0,1.5-1.6,5.84,5.84,0,0,0,.8-2.2,19.53,19.53,0,0,0,.2-2.3,9.66,9.66,0,0,0-.1-2.4"/><path class="cls-2" d="M154,55.7h0a4.7,4.7,0,0,1-2.2,2.2,6.74,6.74,0,0,1-3,.8,7.78,7.78,0,0,1-2.8-.5,4.34,4.34,0,0,1-1.7-1.2,5.3,5.3,0,0,1-1-2.8,4.55,4.55,0,0,1,1-3.2,4.89,4.89,0,0,1,2.5-1.7,11.38,11.38,0,0,1,3.3-.7c1.2-.1,2.3-.1,3.3-.1h.4v-.8c.1-2.8-1.2-4.2-3.7-4.2a9.12,9.12,0,0,0-4.8,1.3v-2a11.25,11.25,0,0,1,4.8-1.1c3.9,0,5.8,2,5.7,6.1V55a18.3,18.3,0,0,0,.2,3.4h-2Zm-.2-5.6h-.6a21.75,21.75,0,0,0-2.6.1,15.77,15.77,0,0,0-2.5.5,5.67,5.67,0,0,0-1.8,1.2,2.82,2.82,0,0,0-.7,2.1,2.35,2.35,0,0,0,1,2.2,3.61,3.61,0,0,0,2.4.7,4.65,4.65,0,0,0,2.8-.7,3.56,3.56,0,0,0,1.4-1.6,4.92,4.92,0,0,0,.5-2c0-.7.1-1.2.1-1.6v-.9Z"/><path class="cls-2" d="M158.7,45.9c0-1.3,0-2.5-.1-3.8h2V45h.1a7.46,7.46,0,0,1,.7-1.2,10,10,0,0,1,1-1.1,5.3,5.3,0,0,1,1.5-.8,6.65,6.65,0,0,1,2.1-.3,5,5,0,0,1,4.3,1.8,7.72,7.72,0,0,1,1.2,4.5V58.3h-2V48.4a6.53,6.53,0,0,0-.9-3.7,3.31,3.31,0,0,0-3-1.3,4.12,4.12,0,0,0-3.8,1.9,4.55,4.55,0,0,0-.8,1.9,7.61,7.61,0,0,0-.3,2.1v9h-2Z"/><polygon class="cls-2" points="174.3 34.3 176.3 34.3 176.3 48.7 183.6 42 186.2 42 178.2 49.3 187.1 58.4 184.3 58.4 176.3 50 176.3 58.4 174.3 58.4 174.3 34.3"/></svg>