<svg xmlns="http://www.w3.org/2000/svg" id="Lag_1" x="0" y="0" version="1.1" viewBox="0 0 156 20" xml:space="preserve"><style>.st0{fill:#fff}</style><path d="M24.65 13.13c0 5.35-1.06 6.64-6.21 6.64-5.07 0-6.18-1.44-6.18-6.64 0-5.33 1.01-6.67 6.18-6.67 5.19.01 6.21 1.17 6.21 6.67zm-8.33 0c0 2.82.24 3.37 2.19 3.37 1.89 0 2.08-.55 2.08-3.37 0-2.83-.19-3.4-2.08-3.4-1.95.01-2.19.58-2.19 3.4zM30.34 1.04v7.43h.19c.66-1.68 1.96-2.01 3.45-2.01 3.4 0 4.7 1.59 4.7 5.55v2.97c0 3.44-1.7 4.78-4.7 4.78-1.77 0-3.07-.45-3.54-2.4h-.19l.09 2.26h-4.06V1.04h4.06zm4.27 12.07c0-2.18-.14-3.37-2.03-3.37-1.68 0-2.24.42-2.24 3.37 0 2.53.09 3.39 2.24 3.39 1.72 0 2.03-.64 2.03-3.39zM61.72 10.29c-.14-1.09-1.01-1.09-1.65-1.09-2.12 0-2.12.27-2.12 1.04 0 .64.05 1.09 2.12 1.14 4.2.1 6.07.35 6.07 3.99 0 3.82-2.81 4.39-6.07 4.39-3.21 0-6.07.07-6.07-4.21h4.06c0 1.46 1.01 1.46 2.01 1.46 1.84 0 2.12-.12 2.12-1.14 0-1.29-.71-1.29-2.12-1.29-5.14 0-6.07-1.21-6.07-3.87 0-4.19 2.62-4.26 6.07-4.26 2.27 0 5.48.02 5.48 3.22v.62h-3.83zM75.58 17.67h-.14c-.31 1.78-2.15 2.08-3.56 2.08-2.83 0-4.48-.72-4.48-4.04 0-3.12 1.56-4.09 4.48-4.09 1.16 0 2.93-.02 3.38 1.46h.19v-2.06c0-1.21-.07-1.98-1.84-1.98-1.02 0-1.65.25-1.65 1.41H67.9c0-4.04 2.81-4.01 5.71-4.01 4.15 0 5.9.55 5.9 5.03v8.13h-4.06l.13-1.93zm-4.13-2.08C71.45 17 72.6 17 73.22 17c1.7 0 2.22-.22 2.22-1.59 0-1.09-.9-1.19-2.22-1.19-1 .01-1.77.18-1.77 1.37zM89.48 9.72h-2.76v9.89h-4.06V9.72h-1.63V6.6h1.63V5.33c0-3.42 1.25-4.36 6.66-4.31v3.25c-.24-.07-.5-.12-.75-.12-1.79 0-1.84.35-1.84 1.98v.47h2.76v3.12zM98.28 17.67h-.14c-.31 1.78-2.15 2.08-3.56 2.08-2.83 0-4.48-.72-4.48-4.04 0-3.12 1.56-4.09 4.48-4.09 1.16 0 2.93-.02 3.38 1.46h.19v-2.06c0-1.21-.07-1.98-1.84-1.98-1.01 0-1.65.25-1.65 1.41H90.6c0-4.04 2.81-4.01 5.71-4.01 4.15 0 5.9.55 5.9 5.03v8.13h-4.06l.13-1.93zm-4.13-2.08C94.15 17 95.3 17 95.92 17c1.7 0 2.22-.22 2.22-1.59 0-1.09-.9-1.19-2.22-1.19-.99.01-1.77.18-1.77 1.37zM110.69 11.65c0-.92.05-1.93-1.06-1.93-1.23 0-1.51 1.02-1.51 2.08v7.81h-4.06V6.6H108v1.9h.16c.54-1.49 1.61-2.06 3.12-2.06 2.83 0 3.07 2.43 3.07 4.81v1.02h-3.66v-.62zM119.68 19.61h-4.06V6.6h4.06v13.01zM119.72 2.09A2.09 2.09 0 11117.64 0c1.15 0 2.08.93 2.08 2.09z" class="st0"/><path d="M24.65 13.13c0 5.35-1.06 6.64-6.21 6.64-5.07 0-6.18-1.44-6.18-6.64 0-5.33 1.01-6.67 6.18-6.67 5.19.01 6.21 1.17 6.21 6.67zm-8.33 0c0 2.82.24 3.37 2.19 3.37 1.89 0 2.08-.55 2.08-3.37 0-2.83-.19-3.4-2.08-3.4-1.95.01-2.19.58-2.19 3.4zM30.34 1.04v7.43h.19c.66-1.68 1.96-2.01 3.45-2.01 3.4 0 4.7 1.59 4.7 5.55v2.97c0 3.44-1.7 4.78-4.7 4.78-1.77 0-3.07-.45-3.54-2.4h-.19l.09 2.26h-4.06V1.04h4.06zm4.27 12.07c0-2.18-.14-3.37-2.03-3.37-1.68 0-2.24.42-2.24 3.37 0 2.53.09 3.39 2.24 3.39 1.72 0 2.03-.64 2.03-3.39zM44.22 1.02v7.43h.19c.66-1.68 1.96-2.01 3.45-2.01 3.4 0 4.7 1.59 4.7 5.55v2.97c0 3.44-1.7 4.78-4.7 4.78-1.77 0-3.07-.45-3.54-2.4h-.19l.09 2.26h-4.06V1.02h4.06zm4.27 12.07c0-2.18-.14-3.37-2.03-3.37-1.68 0-2.24.42-2.24 3.37 0 2.53.09 3.39 2.24 3.39 1.72 0 2.03-.64 2.03-3.39z" class="st0"/><path d="M44.22 1.02v7.43h.19c.66-1.68 1.96-2.01 3.45-2.01 3.4 0 4.7 1.59 4.7 5.55v2.97c0 3.44-1.7 4.78-4.7 4.78-1.77 0-3.07-.45-3.54-2.4h-.19l.09 2.26h-4.06V1.02h4.06zm4.27 12.07c0-2.18-.14-3.37-2.03-3.37-1.68 0-2.24.42-2.24 3.37 0 2.53.09 3.39 2.24 3.39 1.72 0 2.03-.64 2.03-3.39zM61.72 10.29c-.14-1.09-1.01-1.09-1.65-1.09-2.12 0-2.12.27-2.12 1.04 0 .64.05 1.09 2.12 1.14 4.2.1 6.07.35 6.07 3.99 0 3.82-2.81 4.39-6.07 4.39-3.21 0-6.07.07-6.07-4.21h4.06c0 1.46 1.01 1.46 2.01 1.46 1.84 0 2.12-.12 2.12-1.14 0-1.29-.71-1.29-2.12-1.29-5.14 0-6.07-1.21-6.07-3.87 0-4.19 2.62-4.26 6.07-4.26 2.27 0 5.48.02 5.48 3.22v.62h-3.83zM75.58 17.67h-.14c-.31 1.78-2.15 2.08-3.56 2.08-2.83 0-4.48-.72-4.48-4.04 0-3.12 1.56-4.09 4.48-4.09 1.16 0 2.93-.02 3.38 1.46h.19v-2.06c0-1.21-.07-1.98-1.84-1.98-1.02 0-1.65.25-1.65 1.41H67.9c0-4.04 2.81-4.01 5.71-4.01 4.15 0 5.9.55 5.9 5.03v8.13h-4.06l.13-1.93zm-4.13-2.08C71.45 17 72.6 17 73.22 17c1.7 0 2.22-.22 2.22-1.59 0-1.09-.9-1.19-2.22-1.19-1 .01-1.77.18-1.77 1.37zM89.48 9.72h-2.76v9.89h-4.06V9.72h-1.63V6.6h1.63V5.33c0-3.42 1.25-4.36 6.66-4.31v3.25c-.24-.07-.5-.12-.75-.12-1.79 0-1.84.35-1.84 1.98v.47h2.76v3.12zM98.28 17.67h-.14c-.31 1.78-2.15 2.08-3.56 2.08-2.83 0-4.48-.72-4.48-4.04 0-3.12 1.56-4.09 4.48-4.09 1.16 0 2.93-.02 3.38 1.46h.19v-2.06c0-1.21-.07-1.98-1.84-1.98-1.01 0-1.65.25-1.65 1.41H90.6c0-4.04 2.81-4.01 5.71-4.01 4.15 0 5.9.55 5.9 5.03v8.13h-4.06l.13-1.93zm-4.13-2.08C94.15 17 95.3 17 95.92 17c1.7 0 2.22-.22 2.22-1.59 0-1.09-.9-1.19-2.22-1.19-.99.01-1.77.18-1.77 1.37zM110.69 11.65c0-.92.05-1.93-1.06-1.93-1.23 0-1.51 1.02-1.51 2.08v7.81h-4.06V6.6H108v1.9h.16c.54-1.49 1.61-2.06 3.12-2.06 2.83 0 3.07 2.43 3.07 4.81v1.02h-3.66v-.62z" class="st0"/><g><path d="M119.68 19.61h-4.06V6.6h4.06v13.01zM119.72 2.09A2.09 2.09 0 11117.64 0c1.15 0 2.08.93 2.08 2.09z" class="st0"/></g><g><path d="M10.72 1v13.73c0 4.13-1.23 4.87-5.55 4.87C.89 19.6 0 18.59 0 14.3v-1.28h3.91v1.28c0 1.27.14 1.73 1.25 1.73 1.28 0 1.44-.33 1.44-1.3V1h4.12z" class="st0"/></g><g><path d="M127.02 20h-3.84v-4.12h3.84V20z" class="st0"/></g><g><path d="M136.98 6.3c-1.5 0-2.65.39-3.44 1.18l.06-1.03h-3.84v13.28h3.84v-7.79c0-1.64.81-2.41 2.56-2.41 1.6 0 1.71.74 1.75.98l.06.84v8.38h3.84v-8.88c.01-2.98-1.66-4.55-4.83-4.55zM154.76 7.58c-.84-.86-2.48-1.28-5.02-1.28-2.61 0-4.29.43-5.12 1.3-.82.87-1.22 2.63-1.22 5.37 0 2.85.41 4.67 1.24 5.55.84.9 2.56 1.33 5.24 1.33 2.49 0 4.1-.47 4.93-1.44.8-.95 1.19-2.81 1.19-5.69 0-2.6-.41-4.28-1.24-5.14zm-7.06 2.44c.14-.19.59-.5 2.01-.5 1.4 0 1.85.31 1.99.49.16.2.42.83.42 2.77 0 2.34-.26 3.08-.42 3.32-.23.35-.93.54-1.98.54-1.47 0-1.91-.32-2.04-.51-.15-.22-.4-.94-.4-3.26 0-2 .26-2.65.42-2.85z" class="st0"/></g></svg>