<svg xmlns="http://www.w3.org/2000/svg" viewBox="0 0 329 63.3"><path fill="#fff" d="M60.9 19.1c-17 0-20.3 4.4-20.3 21.9 0 17.1 3.6 21.8 20.3 21.8 16.9 0 20.4-4.2 20.4-21.8 0-18.1-3.3-21.9-20.4-21.9zm.3 33c-6.4 0-7.2-1.8-7.2-11.1 0-9.3.8-11.2 7.2-11.2 6.2 0 6.8 1.9 6.8 11.2 0 9.3-.6 11.1-6.8 11.1zM112.1 19.1c-4.9 0-9.2 1.1-11.3 6.6h-.6V1.2H86.9v61.1h13.3l-.3-7.4h.6c1.6 6.4 5.8 7.9 11.6 7.9 9.9 0 15.4-4.4 15.4-15.7v-9.8c.1-13-4.2-18.2-15.4-18.2zm-4.5 33c-7.1 0-7.4-2.9-7.4-11.2 0-9.7 1.9-11.1 7.4-11.1 6.2 0 6.7 3.9 6.7 11.1-.1 9-1.1 11.2-6.7 11.2zM179.6 19.1c-6.3 0-10.2 1.7-12.2 8.5h-.5v-8h-13.3v42.8h13.3V38.8c0-5.2 1-9 7-9 4.3 0 5.4 2 5.5 6.2v26.3h13.3V32.7c0-9.2-4.1-13.6-13.1-13.6zM226.3 25.7h-.6c-2.2-5.5-6.4-6.6-11.3-6.6-11.2 0-15.4 5.2-15.4 18.2v9.8c0 11.3 5.6 15.7 15.4 15.7 5.8 0 10.1-1.5 11.6-7.9h.6l-.3 7.4h13.3V1.2h-13.3v24.5zm-7.2 26.4c-5.6 0-6.8-.7-6.8-11.1 0-8.5.2-11.2 6.8-11.2 7.1 0 7.2 2.9 7.2 11.2 0 9.7-1.7 11.1-7.2 11.1zM265 19.1c-16.4 0-19.9 5.5-19.9 21.9 0 16 3.9 21.8 19.9 21.8 5.9 0 10.9-.5 14.4-2.5 3.5-2.1 5.5-5.8 5.5-12.2h-13.1c0 4.5-2.6 5-6.8 5-5.5 0-6.6-2.2-6.6-9.7h26.5V41c0-17.5-4.6-21.9-19.9-21.9zm-6.5 16.5c.2-5.6 1.6-6.8 6.4-6.8 4.5 0 6.7.4 6.7 6.8h-13.1zM317.2 39.7L328 19.5h-15.6l-4.9 11.9-4.6-11.9h-15.5l10.5 20.2-12.1 22.6h16.1l5.6-14.1 5.9 14.1H329zM133.2 19.5h13.3v42.8h-13.3zM139.7 13.7c3.8 0 6.9-3.1 6.9-6.9 0-3.8-3.1-6.9-6.9-6.9-3.8 0-6.9 3.1-6.9 6.9 0 3.8 3.1 6.9 6.9 6.9zM21.8 47.3c0 3.2-.5 4.3-4.7 4.3-3.7 0-4.1-1.5-4.1-5.7v-4.2H0v4.2C0 60 2.9 63.3 17 63.3c14.2 0 18.3-2.4 18.3-16.1V2H21.8v45.3z"/></svg>
